<svg width="24" height="24" viewBox="0 0 24 24" fill="none" xmlns="http://www.w3.org/2000/svg">
<path d="M18 5.99998C17.8124 5.81251 17.5581 5.70719 17.293 5.70719C17.0278 5.70719 16.7735 5.81251 16.586 5.99998L12 10.586L7.41397 5.99998C7.22644 5.81251 6.97213 5.70719 6.70697 5.70719C6.44181 5.70719 6.1875 5.81251 5.99997 5.99998C5.8125 6.18751 5.70718 6.44181 5.70718 6.70698C5.70718 6.97214 5.8125 7.22645 5.99997 7.41398L10.586 12L5.99997 16.586C5.8125 16.7735 5.70718 17.0278 5.70718 17.293C5.70718 17.5581 5.8125 17.8125 5.99997 18C6.1875 18.1875 6.44181 18.2928 6.70697 18.2928C6.97213 18.2928 7.22644 18.1875 7.41397 18L12 13.414L16.586 18C16.7735 18.1875 17.0278 18.2928 17.293 18.2928C17.5581 18.2928 17.8124 18.1875 18 18C18.1874 17.8125 18.2928 17.5581 18.2928 17.293C18.2928 17.0278 18.1874 16.7735 18 16.586L13.414 12L18 7.41398C18.1874 7.22645 18.2928 6.97214 18.2928 6.70698C18.2928 6.44181 18.1874 6.18751 18 5.99998Z" fill="#374957"/>
</svg>
